Coordinates
version=1
nRows=24
nColumns=19
inDegrees=yes

Units are S.I. units (second, meters, Newtons, ...)
If the header above contains a line with 'inDegrees', this indicates whether rotational values are in degrees (yes) or radians (no).

endheader
time	pelvis_to_ground_rx	pelvis_to_ground_ry	pelvis_to_ground_rz	pelvis_to_ground_tx	pelvis_to_ground_ty	pelvis_to_ground_tz	left_hip_abduction	left_hip_rotation	left_hip_flexion	left_knee_flexion	left_ankle_flexion	left_subtalar_angle	right_hip_abduction	right_hip_rotation	right_hip_flexion	right_knee_flexion	right_ankle_flexion	right_subtalar_angle
      1.01000000	     93.55226880	     -0.35276208	     -1.24836240	     -0.65080569	     -0.79503734	      0.70521085	    -14.22401179	     -0.33707380	     30.55038300	    -39.79382742	      3.11288735	    -13.62500992	      3.56947910	    -10.28658407	      3.55050838	    -49.04230412	     -4.97589546	     -0.74341969
      1.02000000	     94.55094540	      0.31316894	     -1.48968509	     -0.63866781	     -0.79342421	      0.70535369	    -15.35069073	     -1.21349146	     29.42305004	    -39.68192571	      3.47430275	    -13.69334918	      2.14308616	    -13.16758191	      5.04360023	    -51.87266966	     -5.47091998	     -1.14238948
      1.03000000	     95.50726378	      0.90500398	     -1.72233845	     -0.62673177	     -0.79167904	      0.70586596	    -16.46947413	     -1.70348900	     28.27083219	    -39.42463158	      4.59209015	    -13.96824741	      0.81548815	    -15.78007897	      6.59435092	    -54.58388823	     -6.91952853	     -2.28275201
      1.04000000	     96.35618054	      1.52529935	     -2.10995323	     -0.61506540	     -0.78994065	      0.70682281	    -17.44379855	     -2.15463762	     27.19928476	    -38.95254551	      4.99029822	    -13.52046079	     -0.25257757	    -18.16652547	      8.37650534	    -57.11305527	     -7.71633876	     -4.11144025
      1.05000000	     97.10826900	      2.12442880	     -2.46339755	     -0.60361276	     -0.78816600	      0.70815703	    -18.29042420	     -2.46377417	     26.02156920	    -38.25318095	      5.12397469	    -13.43303095	     -1.14712048	    -20.33177314	     10.20442355	    -59.46952661	     -7.83969206	     -4.34883714
      1.06000000	     97.72102031	      2.66927874	     -2.92862606	     -0.59240931	     -0.78642744	      0.70989124	    -18.95873748	     -2.64613106	     24.91966144	    -37.35800908	      5.46332906	    -13.03209325	     -1.72593058	    -22.09840486	     12.24214465	    -61.58286291	     -7.92293581	     -5.38513982
      1.07000000	     98.22671953	      3.18216118	     -3.23108705	     -0.58137566	     -0.78469473	      0.71190993	    -19.47886895	     -2.75659368	     23.57397598	    -36.23205123	      5.50107725	    -12.86052878	     -2.17868850	    -23.54736431	     14.16489898	    -63.45397559	     -7.89196538	     -5.65067333
      1.08000000	     98.53957077	      3.68734062	     -3.67028801	     -0.57057810	     -0.78313547	      0.71422285	    -19.75283084	     -2.87908711	     22.37461362	    -35.02191446	      5.43227461	    -12.31931868	     -2.24631164	    -24.60586784	     16.30965623	    -65.02678313	     -7.47555132	     -6.49680326
      1.09000000	     98.74828689	      4.16378797	     -3.90890935	     -0.55989631	     -0.78162638	      0.71670979	    -19.87432999	     -3.09862906	     20.89060666	    -33.62274405	      5.41925765	    -12.05830960	     -2.25298197	    -25.30374665	     18.25240567	    -66.31406478	     -7.27123455	     -6.81925079
      1.10000000	     98.77084746	      4.61715536	     -4.23789187	     -0.54940690	     -0.78034063	      0.71935730	    -19.76793496	     -3.33991577	     19.54756736	    -32.22014978	      5.20633267	    -11.51335955	     -1.94723943	    -25.56512268	     20.32375419	    -67.28412419	     -6.60501710	     -7.55318886
      1.11000000	     98.75687068	      5.09994003	     -4.36639420	     -0.53901495	     -0.77914748	      0.72195947	    -19.60107800	     -3.75890671	     17.97104450	    -30.77685516	      5.11789942	    -11.20067028	     -1.72648345	    -25.60450828	     22.14705465	    -68.00215196	     -6.25749380	     -7.89527553
      1.12000000	     98.56087395	      5.56193525	     -4.53594767	     -0.52878065	     -0.77822877	      0.72460101	    -19.22057699	     -4.21506173	     16.52452544	    -29.41523689	      4.77187677	    -10.66394029	     -1.27760348	    -25.19558105	     23.97805236	    -68.38704343	     -5.40657599	     -8.63603175
      1.13000000	     98.34147466	      6.07983816	     -4.52612292	     -0.51863455	     -0.77746814	      0.72709845	    -18.80654753	     -4.92587177	     14.88530821	    -28.07732382	      4.67604087	    -10.39183170	     -0.95471478	    -24.61704174	     25.53638100	    -68.51545945	     -5.08283564	     -8.89904323
      1.14000000	     98.04339200	      6.65274671	     -4.52599601	     -0.50863454	     -0.77697196	      0.72945463	    -18.30416353	     -5.74788689	     13.35249443	    -26.89675277	      4.48674650	    -10.09594793	     -0.59253818	    -23.82647566	     27.03308815	    -68.36571231	     -4.60910220	     -9.26251848
      1.15000000	     97.70724552	      7.27236839	     -4.48553159	     -0.49875535	     -0.77672764	      0.73157748	    -17.77097996	     -6.49200673	     11.92146781	    -25.93650394	      4.03458365	     -9.75644048	     -0.27756532	    -22.86689416	     28.40370711	    -67.96492282	     -3.78178924	     -9.95584759
      1.16000000	     97.38766513	      7.98172513	     -4.34588423	     -0.48898409	     -0.77668281	      0.73343110	    -17.26802612	     -7.38070141	     10.44293749	    -25.10461234	      3.92953979	     -9.54867846	     -0.10755953	    -21.88999136	     29.57730276	    -67.33214981	     -3.56007409	    -10.14802184
      1.17000000	     97.08534700	      8.76480398	     -4.21959592	     -0.47933397	     -0.77686027	      0.73500319	    -16.78681847	     -8.22844503	      9.09843172	    -24.47183875	      3.76381093	     -9.32471504	     -0.02735658	    -20.88377436	     30.68129070	    -66.46280266	     -3.26866233	    -10.40506329
      1.18000000	     96.80545292	      9.62512625	     -4.06813414	     -0.46979345	     -0.77724681	      0.73625604	    -16.33354363	     -8.97203080	      7.85833084	    -24.05050546	      3.60594034	     -9.10421326	     -0.05543462	    -19.90649724	     31.67281919	    -65.36182179	     -3.02317116	    -10.62818826
      1.19000000	     96.58466517	     10.53229048	     -3.91979471	     -0.46035688	     -0.77778972	      0.73717602	    -15.94147620	     -9.59999311	      6.73054403	    -23.80503285	      3.44237636	     -8.86324520	     -0.22044330	    -18.96037603	     32.58283876	    -64.03744596	     -2.81486620	    -10.83705167
      1.20000000	     96.39574403	     11.50600156	     -3.77310131	     -0.45098648	     -0.77849721	      0.73777921	    -15.57021337	    -10.09625293	      5.71356806	    -23.72898546	      3.33291494	     -8.61985716	     -0.47840589	    -18.11743469	     33.39814251	    -62.46522377	     -2.70201543	    -10.95591904
      1.21000000	     96.25012585	     12.51253781	     -3.64288977	     -0.44166051	     -0.77932534	      0.73807198	    -15.23025027	    -10.48879570	      4.79592011	    -23.78380867	      3.27608751	     -8.34580449	     -0.82863594	    -17.36196032	     34.12574229	    -60.64064696	     -2.67174085	    -10.98865964
      1.22000000	     96.15733772	     13.51165528	     -3.54540193	     -0.43235313	     -0.78023750	      0.73807350	    -14.92773161	    -10.77301746	      3.97264479	    -23.93196079	      3.32214256	     -7.87480826	     -1.26800709	    -16.66388775	     34.76890127	    -58.55807111	     -2.77555949	    -10.89265585
      1.23000000	     96.07526238	     14.54508601	     -3.45456210	     -0.42302540	     -0.78124675	      0.73780392	    -14.62468824	    -11.05005580	      3.21860862	    -24.20449441	      3.52710867	     -7.40303988	     -1.72981826	    -16.11150455	     35.28452087	    -56.20315258	     -2.99573940	    -10.61562538
      1.24000000	     96.01245567	     15.56567941	     -3.36578739	     -0.41362119	     -0.78230818	      0.73726103	    -14.32801876	    -11.25952186	      2.52415661	    -24.58707213	      3.79038689	     -7.00114605	     -2.20928152	    -15.66647632	     35.65857881	    -53.59918192	     -3.28316254	    -10.22037386
